<?xml version="1.0" encoding="utf-8"?>
<!-- Uploaded to: SVG Repo, www.svgrepo.com, Generator: SVG Repo Mixer Tools -->
<svg width="800px" height="800px" viewBox="0 0 1024 1024" class="icon"  version="1.1" xmlns="http://www.w3.org/2000/svg"><path d="M420.5 520.5c-36.5 0-69 17.6-90.1 45-13.3-18.4-34.6-30.3-58.5-30.3-36.3 0-66.3 27.2-72.1 63h-28c-42.8 0-77.4 35.8-77.4 80s34.7 75.2 77.4 75.2h248.7c63.5 0 115-48.4 115-114 0-65.7-51.5-118.9-115-118.9z" fill="#FFFFFF" /><path d="M682.8 605.9c-78.1 0-141.4-63.1-141.4-140.9 0-77.8 63.3-140.9 141.4-140.9 20.2 0 39.4 4.3 56.8 11.9-34.1-35.5-82-57.7-135.1-57.7-103.4 0-187.3 83.6-187.3 186.7S501 651.7 604.5 651.7c53.2 0 101.1-22.2 135.1-57.7-17.4 7.6-36.6 11.9-56.8 11.9z" fill="#FBBA22" /><path d="M732.8 578.5c-15.9 7-32.7 10.5-50 10.5-68.6 0-124.4-55.6-124.4-124s55.8-124 124.4-124c17.3 0 34.1 3.5 49.9 10.5 7.4 3.3 16.1 0.8 20.7-5.8 4.6-6.6 3.9-15.6-1.7-21.5-38.9-40.6-91.3-62.9-147.3-62.9-112.6 0-204.2 91.4-204.2 203.7 0 13.6 1.4 26.9 3.9 39.7-27.8 3.5-53.5 15.8-73.9 35.6-16.1-14.2-36.5-22-58.3-22-39.3 0-73.3 25.8-85.4 63h-14.7c-52 0-94.4 43.5-94.4 97s42.3 92.1 94.4 92.1h248.7c65.5 0 119.8-44.5 130.1-108.9 17.2 4.7 35.2 7.3 53.9 7.3 56.1 0 108.4-22.3 147.3-62.9 5.6-5.8 6.3-14.8 1.7-21.5-4.7-6.7-13.3-9.2-20.7-5.9zM420.5 736.4H171.9c-33.3 0-60.4-23.5-60.4-58.2s27.1-63 60.4-63h28c8.3 0 15.4-6 16.7-14.2 4.6-28.3 27.9-48.8 55.3-48.8 17.7 0 34 8.5 44.8 23.3 3.1 4.3 8.1 6.9 13.5 7 5.5 0 10.4-2.4 13.7-6.6 17.4-22.6 42.6-36.1 69.9-38 19 49.2 56.6 89.3 104.2 111.6-4.8 51.4-46.7 86.9-97.5 86.9z m183.9-101.7c-93.9 0-170.3-76.2-170.3-169.7 0-93.6 76.4-169.7 170.3-169.7 22.4 0 44.1 4.3 64.2 12.4-80.7 7.2-144.1 75-144.1 157.3 0 82.3 63.4 150.1 144.1 157.3-20.1 8.1-41.8 12.4-64.2 12.4z" fill="#211F1E" /><path d="M892.8 432.4c-7.5 0-14.6 1.8-21 4.8-3.3-22.6-22.6-40.1-46.2-40.1-25.9 0-46.8 21-46.8 46.8 0 2.6 0.4 5 0.7 7.5h-0.7c-21.7 0-39.4 17.6-39.4 39.4 0 21.8 17.6 42.1 39.4 42.1h114c27.7 0 50.2-22.5 50.2-50.2 0-27.8-22.5-50.3-50.2-50.3z" fill="#FFFFFF" /><path d="M892.7 415.4c-3.3 0-6.7 0.3-10 0.8-10.4-21.5-32.5-36.1-57.2-36.1-32.8 0-59.9 24.9-63.4 56.8-23 7.1-39.7 28.6-39.7 53.9 0 32 25.8 59.1 56.3 59.1h114c37 0 67.2-30.2 67.2-67.2 0-37.1-30.2-67.3-67.2-67.3z m0 100.5h-114c-11.7 0-22.4-12-22.4-25.1 0-12.3 10-22.4 23.1-22.4 5 0 9.7-2.2 12.9-6 3.2-3.8 4.6-8.8 3.8-13.7-0.3-1.7-0.5-3.4-0.5-4.8 0-16.5 13.4-29.9 29.9-29.9 14.6 0 27.2 11 29.4 25.6 0.8 5.3 4 9.9 8.7 12.5 4.7 2.6 10.4 2.7 15.2 0.5 4.5-2.1 9.2-3.2 13.9-3.2 18.3 0 33.3 14.9 33.3 33.3-0.1 18.3-15 33.2-33.3 33.2z" fill="#211F1E" /></svg>